<?xml version="1.0" standalone="no"?>
<!DOCTYPE svg PUBLIC "-//W3C//DTD SVG 20010904//EN"
 "http://www.w3.org/TR/2001/REC-SVG-20010904/DTD/svg10.dtd">
<svg version="1.0" xmlns="http://www.w3.org/2000/svg"
 width="1024.000000pt" height="1024.000000pt" viewBox="0 0 1024.000000 1024.000000"
 preserveAspectRatio="xMidYMid meet">
<metadata>
Created by potrace 1.11, written by Peter Selinger 2001-2013
</metadata>
<g transform="translate(0.000000,1024.000000) scale(0.100000,-0.100000)"
fill="#000000" stroke="none">
<path d="M4309 10236 c-2 -2 -38 -6 -79 -10 -41 -3 -86 -8 -100 -10 -14 -3
-43 -7 -65 -11 -65 -10 -88 -14 -115 -20 -14 -3 -36 -8 -49 -11 -83 -17 -348
-101 -361 -114 -3 -3 -12 -6 -20 -8 -40 -9 -323 -150 -328 -163 -2 -5 -9 -9
-15 -9 -7 0 -52 -27 -101 -60 -48 -33 -90 -60 -92 -60 -2 0 -12 -8 -22 -17
-11 -10 -32 -27 -47 -38 -16 -11 -33 -24 -39 -30 -6 -5 -36 -31 -66 -56 -132
-112 -262 -252 -380 -408 -74 -99 -190 -281 -190 -299 0 -6 -3 -12 -8 -14 -7
-3 -102 -191 -102 -203 0 -3 -9 -25 -21 -49 -11 -25 -22 -51 -23 -58 -2 -7 -8
-26 -15 -43 -6 -16 -16 -41 -21 -55 -9 -26 -40 -134 -45 -160 -2 -8 -4 -15 -5
-15 -2 0 -4 -10 -13 -55 -3 -14 -10 -47 -16 -75 -25 -120 -41 -249 -45 -355
-1 -36 -5 -71 -10 -78 -4 -7 -3 -12 2 -12 8 0 6 -79 -3 -88 -2 -3 0 -12 5 -21
5 -10 5 -23 0 -31 -5 -8 -5 -21 0 -30 5 -9 5 -22 0 -29 -4 -8 -4 -27 0 -42 5
-16 5 -29 0 -29 -5 0 -5 -13 0 -30 5 -17 5 -30 0 -30 -5 0 -5 -12 -1 -28 5
-15 5 -37 0 -49 -5 -13 -4 -25 1 -28 6 -4 7 -13 1 -24 -5 -9 -6 -23 -1 -31 4
-7 4 -24 0 -36 -6 -14 -5 -26 0 -29 6 -4 7 -13 1 -24 -5 -9 -6 -23 -1 -30 4
-8 4 -27 0 -42 -5 -16 -5 -29 0 -29 5 0 5 -13 0 -30 -5 -17 -5 -30 0 -30 5 0
5 -13 0 -30 -5 -17 -5 -30 0 -30 5 0 5 -13 0 -30 -5 -17 -5 -30 0 -30 5 0 5
-13 0 -30 -5 -17 -5 -30 0 -30 5 0 5 -13 0 -30 -5 -17 -5 -30 0 -30 5 0 5 -13
0 -30 -5 -17 -5 -30 0 -30 5 0 5 -13 0 -30 -5 -17 -5 -30 0 -30 5 0 5 -13 0
-30 -5 -17 -5 -30 0 -30 5 0 5 -13 0 -30 -5 -17 -5 -30 0 -30 5 0 5 -13 0 -30
-5 -16 -6 -30 -2 -30 8 0 6 -86 -3 -99 -3 -5 -1 -12 4 -16 7 -3 7 -15 1 -30
-5 -13 -5 -27 -1 -30 5 -3 5 -21 1 -40 -4 -19 -4 -37 1 -40 4 -3 4 -17 -1 -30
-6 -15 -6 -27 0 -30 6 -3 6 -15 0 -30 -6 -15 -6 -27 0 -30 6 -3 6 -15 0 -30
-6 -15 -6 -27 0 -30 6 -3 6 -15 0 -30 -5 -13 -5 -27 -1 -30 5 -3 5 -21 1 -40
-4 -19 -4 -37 1 -40 4 -3 4 -17 -1 -30 -6 -15 -6 -27 1 -30 5 -4 7 -11 3 -16
-8 -13 -9 -107 -1 -115 3 -3 2 -17 -3 -30 -6 -14 -6 -26 0 -29 5 -3 6 -15 0
-29 -4 -12 -4 -29 0 -36 5 -8 5 -21 0 -30 -5 -9 -5 -22 0 -30 5 -8 5 -21 0
-30 -5 -9 -5 -22 0 -30 5 -8 5 -21 0 -30 -5 -9 -5 -22 0 -30 5 -8 5 -21 0 -30
-5 -9 -5 -22 0 -30 5 -8 5 -21 0 -30 -5 -9 -5 -22 0 -30 5 -8 5 -21 0 -30 -5
-9 -5 -22 0 -30 5 -8 5 -21 0 -30 -5 -9 -5 -22 0 -30 5 -8 6 -18 4 -22 -5 -7
9 -12 27 -10 10 1 134 2 149 1 8 -1 44 -1 80 0 36 0 72 0 80 0 8 -1 44 -1 80
0 36 0 72 0 80 0 15 -1 94 0 215 2 33 1 67 1 75 0 51 -3 156 1 162 7 4 4 7 34
8 67 1 119 2 370 0 390 -1 11 -1 25 -1 30 0 84 0 354 0 368 0 9 0 64 1 122 0
58 -2 110 -5 115 -3 5 -1 11 5 15 6 4 8 10 5 15 -3 5 -5 69 -4 142 0 73 0 142
-1 153 -2 26 -2 16 -1 210 2 347 2 398 3 404 0 3 0 11 -1 16 -1 6 -1 78 -1
160 1 83 1 157 1 165 -4 83 6 364 14 400 3 14 8 41 11 60 3 19 17 78 31 130
14 52 28 105 30 118 3 12 9 22 14 22 5 0 9 7 9 16 0 37 134 292 178 340 10 11
21 25 23 32 9 27 193 223 264 282 72 59 204 150 219 150 9 0 13 -41 5 -46 -6
-3 -6 -12 0 -22 5 -9 5 -26 0 -39 -5 -13 -4 -25 1 -28 6 -3 6 -15 0 -30 -6
-16 -6 -25 0 -25 6 0 6 -9 0 -25 -6 -16 -6 -25 0 -25 5 0 6 -9 1 -22 -4 -13
-5 -35 0 -50 4 -16 3 -30 -2 -33 -5 -4 -5 -14 -1 -23 9 -17 7 -70 -2 -79 -3
-3 -1 -16 4 -29 6 -16 6 -24 -1 -24 -6 0 -6 -7 1 -19 5 -11 6 -22 1 -25 -9 -6
-6 -60 4 -77 4 -5 2 -9 -4 -9 -7 0 -7 -8 -1 -25 6 -16 6 -25 0 -25 -6 0 -6 -9
0 -25 6 -16 6 -25 -1 -25 -6 0 -6 -7 1 -19 7 -13 7 -22 0 -26 -7 -4 -7 -12 0
-25 7 -13 7 -21 0 -25 -6 -4 -7 -13 -2 -23 9 -17 7 -70 -2 -79 -3 -3 -1 -16 4
-29 6 -16 6 -24 -1 -24 -6 0 -6 -7 1 -19 5 -11 7 -22 3 -24 -9 -6 -9 -64 0
-73 3 -3 2 -17 -3 -30 -6 -15 -6 -24 0 -24 6 0 6 -9 0 -25 -6 -16 -6 -25 0
-25 5 0 6 -9 1 -22 -4 -13 -5 -35 0 -50 4 -16 3 -30 -2 -33 -5 -4 -5 -13 0
-23 5 -9 5 -26 1 -37 -4 -11 -4 -28 1 -37 5 -9 6 -19 1 -22 -8 -5 -6 -95 2
-104 3 -2 1 -15 -4 -28 -6 -14 -6 -24 0 -24 5 0 5 -12 0 -30 -5 -16 -5 -30 -1
-30 5 0 5 -18 1 -39 -4 -21 -3 -46 2 -54 5 -9 4 -18 -1 -22 -7 -4 -7 -15 -1
-30 6 -16 6 -25 0 -25 -6 0 -6 -9 -1 -22 5 -13 5 -33 0 -45 -5 -13 -5 -23 1
-23 5 0 5 -13 0 -30 -5 -16 -5 -30 0 -30 4 0 4 -15 0 -34 -4 -19 -4 -40 1 -47
4 -7 5 -18 1 -23 -7 -12 -6 -96 2 -103 3 -3 1 -16 -4 -29 -6 -14 -6 -24 0 -24
5 0 5 -12 0 -30 -5 -16 -5 -30 -1 -30 5 0 5 -18 1 -39 -4 -21 -3 -46 2 -54 5
-9 4 -18 -1 -22 -7 -4 -7 -15 -1 -30 6 -16 6 -25 0 -25 -6 0 -6 -9 -1 -22 5
-13 5 -33 0 -45 -5 -13 -5 -23 1 -23 5 0 5 -13 0 -30 -5 -16 -5 -30 -2 -30 8
0 6 -79 -2 -87 -3 -3 -1 -16 4 -29 6 -16 6 -24 -1 -24 -6 0 -6 -7 1 -19 5 -11
6 -22 1 -25 -9 -6 -6 -60 4 -77 4 -5 2 -9 -4 -9 -7 0 -7 -8 -1 -25 6 -16 6
-25 0 -25 -6 0 -6 -9 0 -25 6 -16 6 -25 -1 -25 -6 0 -6 -7 1 -19 7 -13 7 -22
0 -26 -7 -4 -7 -12 0 -25 7 -13 7 -21 0 -25 -6 -4 -7 -13 -2 -23 9 -17 7 -70
-2 -79 -3 -3 -1 -16 4 -29 6 -16 6 -24 -1 -24 -6 0 -6 -7 1 -19 5 -11 7 -22 3
-24 -9 -6 -9 -64 0 -73 3 -3 2 -17 -3 -30 -6 -15 -6 -24 0 -24 6 0 6 -9 0 -25
-6 -16 -6 -25 0 -25 5 0 6 -9 1 -22 -4 -13 -5 -35 0 -50 4 -16 3 -30 -2 -33
-5 -4 -5 -14 -1 -23 5 -9 7 -28 5 -42 -5 -42 -5 -128 0 -137 3 -5 2 -15 -3
-23 -4 -7 -4 -24 1 -37 5 -14 5 -23 -1 -23 -6 0 -6 -9 0 -24 5 -15 5 -26 0
-28 -5 -2 -4 -14 3 -27 12 -23 14 -24 152 -21 77 1 147 1 155 1 8 0 44 0 80 0
36 1 72 1 80 0 8 0 44 0 80 0 36 1 72 1 80 0 8 0 44 0 80 0 36 1 72 1 80 0 58
-3 156 2 163 8 9 9 11 136 3 149 -3 5 -1 14 3 21 5 7 5 28 1 47 -4 19 -5 34
-1 34 3 0 5 24 4 52 -2 59 -3 97 -3 176 0 28 -1 58 -1 65 0 6 0 54 2 105 1 50
0 95 -3 98 -3 3 -2 20 2 38 4 19 4 40 0 47 -5 7 -5 21 -1 33 5 11 5 35 1 53
-4 17 -5 34 -2 37 3 3 4 29 3 58 -1 29 -1 67 0 83 0 17 1 36 0 43 -1 6 -1 20
-1 30 0 9 0 33 -1 52 0 19 0 42 0 50 1 8 1 31 0 50 0 19 0 40 0 45 0 6 1 37 1
70 0 33 0 94 1 135 0 41 0 82 -1 90 0 19 1 59 4 85 1 11 -1 37 -5 58 -3 20 -4
37 0 37 6 0 6 95 0 202 -2 26 0 50 3 53 3 3 2 22 -2 41 -4 18 -5 34 -1 34 3 0
5 24 4 52 -2 59 -3 97 -3 176 0 28 -1 58 -1 65 0 6 0 54 2 105 1 50 0 95 -3
98 -3 3 -2 20 2 38 4 19 4 40 0 47 -5 7 -5 21 -1 33 5 11 5 35 1 53 -4 17 -5
34 -2 37 3 3 4 29 3 58 -1 29 -1 67 0 83 0 17 1 36 0 43 -1 6 -1 20 -1 30 0 9
0 33 -1 52 0 19 0 42 0 50 1 8 1 31 0 50 0 19 0 40 0 45 0 6 1 37 1 70 0 33 0
94 1 135 0 41 0 82 -1 90 0 19 1 59 4 85 1 11 -1 37 -5 58 -3 20 -4 37 0 37 6
0 6 95 0 202 -2 26 0 50 3 54 3 3 2 19 -2 35 -5 16 -5 31 -1 33 4 3 6 20 3 38
-2 18 -1 30 3 26 4 -4 18 -3 31 2 14 6 26 6 29 0 3 -6 15 -6 30 0 15 6 27 6
30 0 3 -6 15 -6 30 0 15 6 27 6 30 0 3 -6 15 -6 30 0 15 6 25 6 25 0 0 -5 12
-5 30 0 17 5 30 5 30 0 0 -5 13 -5 30 0 17 5 30 5 30 0 0 -5 13 -5 30 0 17 5
30 5 30 1 0 -4 27 -4 60 -1 33 3 60 3 60 -1 0 -4 14 -4 30 1 17 5 30 6 30 2 0
-8 68 -7 76 1 3 3 17 2 30 -3 14 -6 24 -6 24 0 0 5 12 5 30 0 19 -5 30 -5 30
1 0 6 6 6 18 0 11 -6 24 -6 34 0 10 6 19 6 23 0 3 -6 15 -7 29 -1 12 4 29 4
36 0 8 -5 18 -6 22 -4 4 3 8 -12 8 -33 0 -21 0 -45 0 -53 1 -8 1 -40 0 -70 0
-30 1 -62 1 -70 0 -8 0 -57 -2 -108 -1 -50 0 -95 3 -98 3 -3 2 -20 -2 -38 -4
-19 -4 -40 0 -47 5 -7 5 -21 1 -33 -5 -11 -5 -35 -1 -53 4 -17 5 -34 2 -37 -3
-3 -4 -29 -3 -58 1 -29 1 -66 0 -83 0 -16 -1 -36 0 -42 1 -7 1 -21 1 -30 0
-10 0 -34 1 -53 0 -19 0 -42 0 -50 -1 -8 -1 -31 0 -50 0 -19 0 -39 0 -45 0 -5
-1 -37 -1 -70 0 -33 0 -94 -1 -135 0 -41 0 -82 1 -90 0 -19 -1 -59 -4 -85 -1
-11 1 -37 5 -57 3 -21 4 -38 0 -38 -6 0 -6 -95 0 -202 2 -26 0 -50 -3 -53 -3
-3 -2 -22 2 -41 4 -18 5 -34 1 -34 -3 0 -5 -24 -4 -52 2 -59 3 -97 3 -175 0
-29 1 -59 1 -65 0 -7 0 -55 -2 -106 -1 -50 0 -95 3 -98 3 -3 2 -20 -2 -38 -4
-19 -4 -40 0 -47 5 -7 5 -21 1 -33 -5 -11 -5 -35 -1 -53 4 -17 5 -34 2 -37 -3
-3 -4 -29 -3 -58 1 -29 1 -66 0 -83 0 -16 -1 -36 0 -42 1 -7 1 -21 1 -30 0
-10 0 -34 1 -53 0 -19 0 -42 0 -50 -1 -8 -1 -31 0 -50 0 -19 0 -39 0 -45 0 -5
-1 -37 -1 -70 0 -33 0 -94 -1 -135 0 -41 0 -82 1 -90 0 -19 -1 -59 -4 -85 -1
-11 1 -37 5 -57 3 -21 4 -38 0 -38 -6 0 -6 -95 0 -202 2 -26 0 -50 -3 -53 -3
-3 -2 -22 2 -41 4 -18 5 -34 1 -34 -3 0 -5 -24 -4 -52 4 -87 4 -121 1 -171 -2
-26 -1 -47 2 -47 3 0 3 -25 2 -55 l-4 -54 91 2 c50 1 91 -2 91 -6 0 -5 4 -6 8
-3 9 5 71 6 466 6 121 0 221 2 224 4 2 2 16 0 32 -4 32 -9 73 11 51 24 -6 4
-8 12 -4 19 7 12 7 106 -1 114 -2 3 -1 16 4 29 6 14 6 24 0 24 -5 0 -5 12 0
30 5 17 5 30 1 30 -5 0 -5 18 -1 39 4 21 3 46 -2 54 -5 9 -4 18 1 22 7 4 7 15
1 30 -6 16 -6 25 0 25 6 0 6 9 1 23 -5 12 -5 32 0 45 5 12 5 22 -1 22 -5 0 -5
13 0 30 5 17 5 30 0 30 -4 0 -4 15 0 34 4 19 4 40 -1 47 -4 7 -5 18 -1 23 7
12 6 96 -2 103 -3 3 -1 16 4 29 6 14 6 24 0 24 -5 0 -5 12 0 30 5 17 5 30 1
30 -5 0 -5 18 -1 39 4 21 3 46 -2 54 -5 9 -4 18 1 22 7 4 7 15 1 30 -6 16 -6
25 0 25 6 0 6 9 1 23 -5 12 -5 32 0 45 5 12 5 22 -1 22 -5 0 -5 13 0 30 5 17
5 30 2 30 -8 0 -6 79 2 87 3 3 1 16 -4 29 -6 16 -6 24 1 24 6 0 6 7 -1 19 -5
11 -6 22 -1 25 9 6 6 60 -4 77 -4 5 -2 9 4 9 7 0 7 8 1 25 -6 16 -6 25 0 25 6
0 6 9 0 25 -6 16 -6 25 1 25 6 0 6 7 -1 19 -7 13 -7 22 0 26 7 4 7 12 0 25 -7
13 -7 21 0 25 6 4 7 13 2 23 -9 17 -7 70 2 79 3 3 1 16 -4 29 -6 16 -6 24 1
24 6 0 6 7 -1 19 -5 11 -7 22 -3 24 9 6 9 64 0 73 -3 3 -2 17 3 30 6 15 6 24
0 24 -6 0 -6 9 0 25 6 16 6 25 0 25 -5 0 -6 9 -1 22 4 13 5 35 0 50 -4 16 -3
30 2 33 5 4 5 14 1 23 -9 17 -7 70 2 79 3 3 1 16 -4 29 -6 16 -6 24 1 24 6 0
6 7 -1 19 -5 11 -6 22 -1 25 9 6 6 60 -4 77 -4 5 -2 9 4 9 7 0 7 8 1 25 -6 16
-6 25 0 25 6 0 6 9 0 25 -6 16 -6 25 1 25 6 0 6 7 -1 19 -7 13 -7 22 0 26 7 4
7 12 0 25 -7 13 -7 21 0 25 6 4 7 13 2 23 -9 17 -7 70 2 79 3 3 1 16 -4 29 -6
16 -6 24 1 24 6 0 6 7 -1 19 -5 11 -7 22 -3 24 9 6 9 64 0 73 -3 3 -2 17 3 30
6 15 6 24 0 24 -6 0 -6 9 0 25 6 16 6 25 0 25 -5 0 -6 9 -1 22 4 13 5 35 0 50
-4 16 -3 30 2 33 5 4 5 14 1 23 -9 17 -7 70 2 79 3 3 1 16 -4 29 -6 16 -6 24
1 24 6 0 6 7 -1 19 -5 11 -6 22 -1 25 9 6 6 60 -4 77 -4 5 -2 9 4 9 7 0 7 8 1
25 -6 16 -6 25 0 25 6 0 6 9 0 25 -6 16 -6 25 1 25 6 0 6 7 -1 19 -7 13 -7 22
0 26 7 4 7 12 0 25 -7 13 -7 21 0 25 6 4 7 13 2 23 -9 17 -7 70 2 79 3 3 1 16
-4 29 -6 16 -6 24 1 24 6 0 6 7 -1 19 -7 14 -7 22 0 26 6 4 8 10 5 15 -7 11
-10 89 -3 95 16 16 203 -122 311 -228 100 -98 164 -176 231 -279 31 -47 56
-89 56 -92 0 -3 13 -28 30 -56 16 -27 27 -50 24 -50 -4 0 -2 -6 3 -12 5 -7 20
-40 32 -73 13 -33 26 -69 31 -80 10 -26 30 -95 34 -120 2 -11 6 -27 9 -35 3
-8 9 -37 13 -65 4 -27 9 -57 11 -65 2 -8 6 -87 8 -175 3 -88 5 -164 6 -170 0
-5 -1 -77 -1 -160 -1 -82 -1 -159 0 -170 1 -11 1 -24 1 -30 0 -84 0 -354 0
-367 0 -10 0 -65 -1 -123 0 -58 2 -110 5 -115 3 -5 1 -11 -5 -15 -6 -4 -8 -10
-5 -15 3 -5 5 -69 4 -142 0 -73 0 -142 1 -153 2 -26 2 -16 1 -210 -2 -347 -2
-398 -3 -404 0 -3 0 -10 1 -16 1 -5 2 -59 1 -120 0 -60 0 -159 0 -218 0 -59 2
-112 5 -117 3 -5 1 -11 -4 -15 -6 -3 -8 -12 -4 -21 4 -11 20 -15 57 -14 62 1
505 2 526 1 65 -2 215 1 222 5 4 3 8 2 8 -3 0 -4 32 -6 71 -3 63 4 73 8 80 27
5 13 4 25 -1 28 -6 3 -6 15 0 30 5 13 5 27 1 30 -5 3 -5 21 -1 40 4 19 4 37
-1 40 -4 3 -4 17 1 30 6 15 6 27 0 30 -6 3 -6 15 0 30 6 15 6 27 0 30 -6 3 -6
15 0 30 6 15 6 27 0 30 -6 3 -6 15 0 30 5 13 5 27 1 30 -5 3 -5 21 -1 40 4 19
4 37 -1 40 -4 3 -4 17 1 30 6 15 6 27 -1 30 -5 4 -7 11 -3 16 8 13 9 107 1
115 -3 3 -2 17 3 30 6 14 6 26 0 29 -5 3 -6 15 0 29 4 12 4 29 0 36 -5 8 -5
21 0 30 5 9 5 22 0 30 -5 8 -5 21 0 30 5 9 5 22 0 30 -5 8 -5 21 0 30 5 9 5
22 0 30 -5 8 -5 21 0 30 5 9 5 22 0 30 -5 8 -5 21 0 30 5 9 5 22 0 30 -5 8 -5
21 0 30 5 9 5 22 0 30 -5 8 -5 21 0 30 5 9 5 22 0 30 -5 8 -5 21 0 30 5 9 5
22 0 30 -5 8 -5 21 0 30 5 9 5 22 0 30 -5 8 -5 21 0 30 5 9 5 22 0 30 -5 8 -5
21 0 30 5 9 5 22 0 30 -5 8 -5 21 0 30 5 9 5 22 0 30 -5 8 -5 21 0 30 5 9 5
22 0 30 -5 8 -5 21 0 30 5 9 5 22 0 30 -5 8 -5 21 0 30 5 9 5 22 0 30 -4 7 -6
18 -4 24 7 17 10 106 4 106 -7 0 -3 87 5 99 3 5 1 12 -4 16 -7 3 -7 15 -1 30
5 13 5 27 1 30 -5 3 -5 21 -1 40 4 19 4 37 -1 40 -4 3 -4 17 1 30 6 15 6 27 0
30 -6 3 -6 15 0 30 6 15 6 27 0 30 -6 3 -6 15 0 30 6 15 6 27 0 30 -6 3 -6 15
0 30 5 13 5 27 1 30 -5 3 -5 21 -1 40 4 19 4 37 -1 40 -4 3 -4 17 1 30 6 15 6
27 0 30 -5 3 -6 15 -1 28 5 12 5 34 0 49 -4 16 -3 30 2 34 5 3 6 10 3 16 -4 6
-8 43 -10 81 -3 77 -13 185 -20 220 -3 12 -7 36 -9 52 -14 117 -91 409 -116
441 -5 6 -6 13 -3 17 3 3 -1 16 -10 29 -8 12 -15 25 -15 28 1 26 -93 226 -162
347 -115 200 -244 366 -420 542 -104 104 -118 115 -239 208 -52 40 -103 79
-112 88 -10 8 -21 15 -24 15 -4 0 -30 15 -58 34 -83 54 -351 196 -372 196 -3
0 -20 6 -37 14 -33 15 -170 65 -197 72 -8 2 -67 17 -130 34 -63 16 -133 32
-155 35 -22 3 -48 8 -59 11 -10 4 -35 8 -55 10 -20 1 -52 6 -71 9 -38 7 -1734
18 -1741 11z"/>
<path d="M1520 4481 c0 -3 -21 -6 -48 -5 -44 0 -167 -19 -167 -26 0 -1 -7 -3
-15 -5 -66 -13 -186 -90 -264 -170 -54 -56 -142 -205 -128 -219 3 -3 -1 -6 -8
-6 -7 0 -11 -2 -8 -5 3 -4 -7 -41 -22 -85 -16 -43 -26 -81 -23 -84 4 -3 1 -6
-5 -6 -7 0 -12 -7 -12 -15 0 -14 -53 -179 -70 -220 -9 -20 -87 -262 -97 -300
-12 -43 -10 -230 3 -272 7 -24 11 -43 8 -43 -3 0 1 -10 8 -22 6 -13 13 -29 14
-35 10 -58 139 -223 224 -286 73 -54 218 -106 306 -111 52 -3 64 -11 64 -44 0
-15 0 -34 1 -42 0 -8 0 -41 -1 -72 -1 -31 1 -61 4 -67 4 -5 2 -12 -3 -15 -4
-3 -5 -23 -1 -43 3 -21 3 -50 -1 -64 -3 -15 -3 -32 1 -39 4 -7 4 -26 0 -41 -5
-16 -5 -31 0 -34 4 -3 4 -20 0 -39 -4 -19 -6 -37 -3 -40 8 -7 9 -106 2 -106
-4 0 -3 -16 1 -35 4 -19 4 -37 0 -40 -4 -2 -4 -22 0 -42 3 -21 3 -50 -1 -64
-3 -15 -3 -32 1 -39 4 -7 4 -26 0 -41 -5 -16 -5 -31 0 -34 4 -3 4 -20 0 -39
-4 -19 -6 -37 -3 -40 8 -7 9 -106 2 -106 -4 0 -3 -16 1 -35 4 -19 4 -37 0 -40
-4 -2 -4 -22 -1 -42 4 -21 4 -49 1 -63 -4 -14 -3 -35 1 -46 4 -12 5 -24 3 -27
-5 -5 -8 -103 -4 -117 5 -17 4 -110 -1 -110 -4 0 -3 -18 1 -40 4 -22 4 -40 0
-40 -4 0 -5 -15 -1 -32 4 -18 4 -47 1 -65 -4 -17 -4 -37 0 -44 4 -6 4 -24 0
-39 -4 -15 -4 -33 0 -40 4 -7 4 -25 0 -41 -5 -15 -6 -30 -3 -33 8 -7 9 -106 2
-106 -4 0 -3 -18 1 -40 4 -22 4 -40 -1 -40 -5 0 -6 -6 -3 -13 2 -7 6 -40 8
-72 4 -76 14 -111 41 -155 37 -59 84 -101 144 -129 l56 -26 380 -2 c383 -3
436 1 476 34 8 7 20 13 25 13 13 0 67 50 96 90 31 41 57 125 54 169 -1 18 1
34 6 37 4 3 3 14 -2 25 -7 12 -7 19 -1 19 7 0 7 8 2 23 -5 12 -5 31 -1 42 4
11 3 25 -2 32 -5 7 -5 14 2 18 7 4 7 12 0 26 -7 12 -7 19 -1 19 7 0 7 8 2 23
-5 12 -5 31 -1 42 4 11 3 25 -2 32 -5 7 -5 14 2 18 7 4 7 12 0 26 -7 12 -7 19
-1 19 7 0 7 8 2 23 -5 12 -5 31 -1 42 4 11 3 25 -2 32 -5 7 -5 14 2 18 7 4 7
12 0 26 -7 12 -7 19 -1 19 7 0 7 8 2 23 -5 12 -5 31 -1 42 4 11 3 25 -2 32 -5
7 -5 14 2 18 7 4 7 12 0 26 -7 12 -7 19 -1 19 7 0 7 8 2 23 -5 12 -5 31 -1 42
4 11 3 25 -2 32 -5 7 -5 14 2 18 7 4 7 12 0 26 -7 12 -7 19 -1 19 7 0 7 8 2
23 -5 12 -5 31 -1 42 4 11 3 25 -2 32 -5 7 -5 14 2 18 7 4 7 12 0 26 -7 12 -7
19 -1 19 7 0 7 8 2 22 -5 13 -5 32 -1 43 4 11 3 25 -2 32 -5 7 -5 14 2 18 7 4
7 12 0 26 -7 12 -7 19 -1 19 7 0 7 8 2 23 -5 12 -5 31 -1 42 4 11 3 25 -2 32
-5 7 -5 14 2 18 7 4 7 12 0 26 -7 12 -7 19 -1 19 7 0 7 8 2 23 -5 12 -5 31 -1
42 4 11 3 25 -2 32 -5 7 -5 14 2 18 7 4 7 12 0 26 -7 12 -7 19 -1 19 7 0 7 8
2 23 -5 12 -5 31 -1 42 4 11 3 25 -2 32 -5 7 -5 14 2 18 7 4 7 12 0 26 -7 12
-7 19 -1 19 7 0 7 8 2 23 -5 12 -5 31 -1 42 4 11 3 25 -2 32 -5 7 -5 14 2 18
7 4 7 12 0 26 -7 12 -7 19 -1 19 7 0 7 8 2 23 -5 12 -5 31 -1 42 4 11 3 25 -2
32 -5 7 -5 14 2 18 7 4 7 12 0 26 -7 12 -7 19 -1 19 7 0 7 8 2 23 -5 12 -5 32
0 45 5 13 5 22 -2 22 -6 0 -6 6 0 18 7 13 7 22 0 29 -8 8 -8 13 0 17 6 4 7 15
2 29 -11 29 2 63 28 70 12 3 21 2 21 -2 0 -8 59 -6 67 3 3 3 14 1 24 -4 12 -7
20 -7 24 0 4 7 12 7 25 0 12 -6 21 -7 25 0 3 6 15 6 30 0 15 -6 27 -6 30 1 4
5 11 7 16 3 15 -9 79 -11 79 -2 0 4 11 3 25 -2 16 -6 25 -6 25 1 0 6 7 6 19
-1 13 -6 22 -7 26 0 4 6 15 6 30 0 16 -6 25 -6 25 0 0 6 9 6 23 1 12 -5 32 -5
45 0 13 5 22 5 22 -1 0 -6 9 -6 25 0 16 6 25 6 25 0 0 -6 9 -6 25 0 14 5 25 6
25 2 0 -4 11 -7 25 -7 14 0 25 3 25 7 0 4 7 5 15 1 23 -8 184 -9 178 -1 -2 5
7 4 21 -2 16 -6 26 -6 26 0 0 6 9 6 23 1 12 -5 32 -5 45 0 13 5 22 5 22 -1 0
-6 9 -6 25 0 16 6 25 6 25 0 0 -6 9 -6 25 0 14 5 25 6 25 2 0 -4 11 -7 25 -7
14 0 25 3 25 7 0 4 7 5 15 1 23 -8 184 -9 178 -1 -2 5 7 4 21 -2 16 -6 26 -6
26 0 0 6 9 6 23 1 12 -5 32 -5 45 0 13 5 22 5 22 -1 0 -6 9 -6 25 0 16 6 25 6
25 0 0 -6 9 -6 25 0 14 5 25 6 25 2 0 -4 11 -7 25 -7 14 0 25 3 25 7 0 4 7 5
15 1 23 -8 184 -9 178 -1 -2 5 7 4 21 -2 16 -6 26 -6 26 0 0 6 9 6 23 1 12 -5
32 -5 45 0 13 5 22 5 22 -1 0 -6 9 -6 25 0 16 6 25 6 25 0 0 -6 9 -6 25 0 14
5 25 6 25 2 0 -4 11 -7 25 -7 14 0 25 3 25 7 0 4 10 4 23 -1 12 -5 32 -5 45 0
13 5 22 5 22 -1 0 -6 9 -6 25 0 16 6 25 6 25 0 0 -6 9 -6 25 0 14 5 25 6 25 2
0 -4 11 -7 25 -7 14 0 25 3 25 7 0 4 11 3 25 -2 15 -6 26 -6 30 0 4 6 14 7 23
2 19 -9 54 -8 71 2 6 4 11 2 11 -4 0 -8 6 -8 20 0 14 8 20 8 20 0 0 -8 6 -8
20 0 14 8 20 8 20 0 0 -8 6 -8 20 0 14 8 20 8 20 0 0 -8 6 -8 20 0 14 8 20 8
20 0 0 -8 6 -8 20 0 14 8 20 8 20 0 0 -8 6 -8 20 0 14 8 20 8 20 0 0 -8 6 -8
20 0 14 8 20 8 20 0 0 -8 6 -8 20 0 14 8 20 8 20 0 0 -8 6 -8 20 0 14 8 20 8
20 0 0 -8 6 -8 20 0 14 8 20 8 20 0 0 -8 6 -8 20 0 14 8 20 8 20 0 0 -8 6 -8
20 0 14 8 20 8 20 0 0 -8 6 -8 20 0 14 8 20 8 20 0 0 -8 6 -8 20 0 14 8 20 8
20 0 0 -8 6 -8 20 0 14 8 20 8 20 0 0 -8 6 -8 20 0 14 8 20 8 20 0 0 -8 6 -8
20 0 14 8 20 8 20 0 0 -8 6 -8 20 0 14 8 20 8 20 0 0 -8 6 -8 20 0 14 8 20 8
20 0 0 -8 6 -8 20 0 14 8 20 8 20 0 0 -8 6 -8 20 0 14 8 20 8 20 0 0 -8 6 -8
20 0 14 8 20 8 20 0 0 -8 6 -8 20 0 14 8 20 8 20 0 0 -8 6 -8 20 0 14 8 20 8
20 0 0 -8 6 -8 20 0 14 8 20 8 20 0 0 -8 6 -8 20 0 14 8 20 8 20 0 0 -8 6 -8
20 0 14 8 20 8 20 0 0 -8 6 -8 20 0 14 8 20 8 20 0 0 -8 6 -8 20 0 14 8 20 8
20 0 0 -8 6 -8 20 0 14 8 20 8 20 0 0 -8 6 -8 20 0 14 8 20 8 20 0 0 -8 6 -8
20 0 14 8 20 8 20 0 0 -8 6 -8 20 0 14 8 20 8 20 0 0 -8 6 -8 20 0 14 8 20 8
20 0 0 -8 6 -8 20 0 14 8 20 8 20 0 0 -8 6 -8 20 0 14 8 20 8 20 0 0 -8 6 -8
20 0 14 8 20 8 20 0 0 -8 6 -8 20 0 14 8 20 8 20 0 0 -8 6 -8 20 0 14 8 20 8
20 0 0 -8 6 -8 20 0 14 8 20 8 20 0 0 -8 6 -8 20 0 14 8 20 8 20 0 0 -8 6 -8
20 0 14 8 20 8 20 0 0 -8 6 -8 20 0 14 8 20 8 20 0 0 -8 6 -8 20 0 14 8 20 8
20 0 0 -8 6 -8 20 0 14 8 20 8 20 0 0 -8 6 -8 20 0 14 8 20 8 20 0 0 -8 6 -8
20 0 14 8 20 8 20 0 0 -8 6 -8 20 0 14 8 20 8 20 0 0 -8 6 -8 20 0 14 8 20 8
20 0 0 -8 6 -8 20 0 14 8 20 8 20 0 0 -8 6 -8 20 0 14 8 20 8 20 0 0 -8 6 -8
20 0 14 8 20 8 20 0 0 -8 6 -8 20 0 14 8 20 8 20 0 0 -8 6 -8 20 0 14 8 20 8
20 0 0 -8 6 -8 20 0 14 8 20 8 20 0 0 -8 6 -8 20 0 14 8 20 8 20 0 0 -8 6 -8
20 0 14 8 20 8 20 0 0 -8 6 -8 20 0 14 8 20 8 20 0 0 -8 6 -8 20 0 14 8 20 8
20 0 0 -7 6 -8 18 -1 13 7 22 7 29 0 8 -8 13 -8 17 0 5 7 15 7 32 1 16 -7 23
-7 19 0 -4 6 2 7 16 2 21 -8 47 -52 31 -52 -4 0 -7 -13 -7 -30 0 -16 3 -30 7
-30 4 0 3 -11 -2 -25 -6 -15 -6 -26 0 -30 6 -4 7 -13 1 -23 -6 -11 -6 -24 0
-35 7 -11 7 -17 0 -17 -7 0 -7 -8 -1 -25 5 -14 6 -25 2 -25 -9 0 -8 -58 1 -66
3 -4 2 -15 -3 -25 -7 -12 -7 -20 0 -24 6 -4 7 -13 1 -23 -6 -11 -6 -24 0 -35
7 -11 7 -17 0 -17 -7 0 -7 -8 -1 -25 5 -14 6 -25 2 -25 -9 0 -8 -58 1 -66 3
-4 2 -15 -3 -25 -7 -12 -7 -20 0 -24 6 -4 7 -13 1 -23 -6 -11 -6 -24 0 -35 7
-11 7 -17 0 -17 -7 0 -7 -8 -1 -25 5 -14 6 -25 2 -25 -9 0 -8 -58 1 -66 3 -4
2 -15 -3 -25 -7 -12 -7 -20 0 -24 6 -4 7 -13 1 -23 -6 -11 -6 -24 0 -35 7 -11
7 -17 0 -17 -7 0 -7 -8 -1 -25 5 -14 6 -25 2 -25 -9 0 -8 -58 1 -66 3 -4 2
-15 -3 -25 -7 -12 -7 -20 0 -24 6 -4 7 -13 1 -23 -6 -11 -6 -24 0 -35 7 -11 7
-17 0 -17 -7 0 -7 -8 -1 -25 5 -14 6 -25 2 -25 -9 0 -8 -58 1 -66 3 -4 2 -15
-3 -25 -7 -12 -7 -20 0 -24 6 -4 7 -13 1 -23 -6 -11 -6 -24 0 -35 7 -11 7 -17
0 -17 -7 0 -7 -8 -1 -25 5 -14 6 -25 2 -25 -9 0 -8 -58 1 -66 3 -4 2 -15 -3
-25 -7 -12 -7 -20 0 -24 6 -4 7 -13 1 -23 -6 -11 -6 -24 0 -35 7 -11 7 -17 0
-17 -7 0 -7 -8 -1 -25 5 -14 6 -25 2 -25 -9 0 -8 -58 1 -66 3 -4 2 -15 -3 -25
-7 -12 -7 -20 0 -24 6 -4 7 -13 1 -23 -6 -11 -6 -24 0 -35 7 -11 7 -17 0 -17
-7 0 -7 -8 -1 -25 5 -14 6 -25 2 -25 -9 0 -8 -58 1 -66 3 -4 2 -15 -3 -25 -7
-12 -7 -20 0 -24 6 -4 7 -13 1 -23 -6 -11 -6 -24 0 -35 7 -11 7 -17 0 -17 -7
0 -7 -8 -1 -25 6 -17 6 -25 -1 -25 -6 0 -8 -4 -5 -9 3 -5 8 -30 10 -56 13
-118 116 -244 223 -272 15 -4 199 -8 408 -10 379 -3 380 -2 437 21 70 29 113
64 154 125 33 49 43 79 50 151 3 25 7 50 9 57 2 6 1 14 -2 17 -8 7 -9 106 -2
106 4 0 3 18 -1 40 -4 22 -4 40 0 40 4 0 5 15 1 33 -4 17 -4 46 -1 64 4 17 4
37 0 44 -4 6 -4 24 0 39 4 15 4 33 0 40 -4 7 -4 25 0 41 5 15 6 30 3 33 -8 7
-9 106 -2 106 4 0 3 18 -1 40 -4 22 -4 40 0 40 4 0 5 15 1 33 -3 17 -4 52 -1
77 3 25 2 64 -1 88 -3 23 -3 42 2 42 4 0 3 16 -1 35 -4 19 -4 37 0 40 4 2 4
22 0 42 -3 21 -3 50 1 64 3 15 3 32 -1 39 -4 7 -4 26 0 41 5 16 5 31 0 34 -4
3 -4 20 0 39 4 19 6 37 3 40 -8 7 -9 106 -2 106 4 0 3 16 -1 35 -4 19 -4 37 0
40 4 2 4 22 0 42 -3 21 -3 50 1 64 3 15 3 32 -1 39 -4 7 -4 26 0 41 5 16 5 31
0 34 -4 3 -4 20 0 39 4 19 6 37 3 40 -8 7 -9 106 -2 106 4 0 3 16 -1 35 -4 19
-4 37 0 40 4 2 4 22 1 42 -4 21 -4 52 0 70 3 18 4 35 1 38 -3 2 -5 24 -5 47 0
34 4 43 17 42 9 -1 16 1 16 5 0 3 15 7 33 8 54 2 96 9 103 16 4 4 14 7 22 7
21 0 152 64 187 91 112 89 178 180 230 314 32 84 40 251 16 349 -6 27 -57 184
-113 350 -55 165 -101 305 -102 311 -1 5 -8 20 -14 33 -7 12 -11 22 -8 22 6 0
-43 95 -69 135 -21 31 -65 84 -100 118 -57 55 -203 134 -270 144 -16 3 -37 8
-45 12 -8 3 -45 6 -82 6 -38 0 -68 2 -68 5 0 3 -26 4 -57 2 -82 -4 -144 -3
-153 3 -5 3 -11 1 -14 -4 -3 -4 -24 -5 -46 -1 -22 4 -40 4 -40 0 0 -4 -18 -4
-40 0 -22 4 -43 4 -45 0 -3 -4 -19 -4 -37 -1 -18 4 -50 4 -71 0 -20 -3 -40 -2
-43 2 -3 5 -9 7 -14 4 -8 -5 -60 -6 -153 -4 -31 1 -60 0 -63 -3 -2 -3 -22 -2
-44 2 -21 4 -44 4 -51 -1 -7 -4 -17 -5 -22 -2 -12 7 -194 6 -207 -2 -5 -3 -10
-2 -10 3 0 5 -17 6 -40 2 -22 -4 -40 -4 -40 0 0 4 -18 4 -40 0 -22 -4 -40 -4
-40 0 0 4 -18 4 -40 0 -22 -4 -40 -4 -40 0 0 4 -18 4 -40 0 -22 -4 -40 -4 -40
0 0 4 -18 4 -40 0 -22 -4 -40 -4 -40 0 0 4 -18 4 -40 0 -22 -4 -40 -4 -40 1 0
5 -6 6 -13 3 -17 -6 -157 -10 -157 -4 0 3 -54 5 -120 5 -66 0 -120 -2 -120 -5
0 -3 -27 -3 -61 0 -33 3 -62 3 -64 -1 -3 -3 -22 -3 -44 1 -22 4 -45 4 -52 -1
-7 -4 -18 -5 -24 -2 -18 6 -235 9 -235 3 0 -3 -27 -3 -61 0 -33 3 -62 3 -64
-1 -3 -3 -22 -3 -44 1 -22 4 -45 4 -51 0 -6 -4 -26 -4 -43 -1 -18 4 -49 4 -69
0 -21 -3 -40 -4 -43 -1 -7 7 -154 4 -166 -3 -5 -4 -9 -2 -9 3 0 5 -17 6 -40 2
-22 -4 -40 -4 -40 0 0 4 -18 4 -40 0 -22 -4 -40 -4 -40 0 0 4 -18 4 -40 0 -22
-4 -40 -4 -40 0 0 4 -18 4 -40 0 -22 -4 -40 -4 -40 0 0 4 -18 4 -40 0 -22 -4
-40 -4 -40 0 0 4 -18 4 -40 0 -23 -4 -40 -3 -40 2 0 5 -4 6 -10 3 -9 -6 -101
-7 -233 -4 -31 1 -60 0 -63 -3 -2 -3 -22 -2 -44 2 -21 4 -44 4 -50 0 -6 -4
-26 -4 -43 -1 -18 4 -49 4 -70 0 -20 -3 -40 -2 -43 2 -3 5 -9 7 -14 4 -7 -5
-22 -5 -155 -5 -102 -1 -138 1 -146 6 -4 2 -10 0 -13 -5 -3 -4 -23 -5 -43 -2
-21 4 -51 4 -68 1 -16 -3 -51 -3 -77 0 -27 4 -48 2 -48 -2 0 -5 -4 -6 -10 -3
-5 3 -33 5 -62 5 -29 0 -62 -1 -73 -1 -11 0 -54 0 -95 0 -41 0 -79 -1 -85 0
-85 3 -136 3 -140 -1 -3 -3 -23 -2 -45 2 -21 4 -44 4 -50 0 -6 -4 -26 -4 -43
-1 -18 4 -49 4 -70 0 -20 -3 -40 -2 -43 2 -3 5 -9 7 -14 4 -7 -5 -22 -5 -155
-5 -102 -1 -138 1 -146 6 -4 2 -10 0 -13 -5 -3 -4 -23 -5 -43 -2 -21 4 -51 4
-68 1 -16 -3 -51 -3 -77 0 -27 4 -48 2 -48 -2 0 -5 -4 -6 -10 -3 -5 3 -33 5
-62 5 -29 0 -62 -1 -73 -1 -11 0 -54 0 -95 0 -41 0 -79 -1 -85 0 -85 3 -136 3
-140 -1 -3 -3 -23 -2 -45 2 -21 4 -44 4 -50 0 -6 -4 -26 -4 -43 -1 -18 4 -49
4 -70 0 -20 -3 -40 -2 -43 2 -3 5 -9 7 -14 4 -7 -5 -22 -5 -155 -5 -102 -1
-138 1 -146 6 -4 2 -10 0 -13 -5 -3 -4 -23 -5 -43 -2 -21 4 -51 4 -68 1 -16
-3 -51 -3 -77 0 -27 4 -48 4 -48 1z"/>
</g>
</svg>
